<?xml version="1.0" encoding="utf-8"?>
<!-- Generator: Adobe Illustrator 15.1.0, SVG Export Plug-In . SVG Version: 6.00 Build 0)  -->
<!DOCTYPE svg PUBLIC "-//W3C//DTD SVG 1.1//EN" "http://www.w3.org/Graphics/SVG/1.1/DTD/svg11.dtd">
<svg version="1.1" id="Layer_1" xmlns="http://www.w3.org/2000/svg" xmlns:xlink="http://www.w3.org/1999/xlink" x="0px" y="0px"
	 width="680.5px" height="151.951px" viewBox="0 0 680.5 151.951" enable-background="new 0 0 680.5 151.951" xml:space="preserve">
<path d="M-314.55,71.438c-16-5.244-31.7-13.431-31.7-31.895c0-15.303,11.961-31.599,32.35-31.599c9.618,0,18.955,2.973,27.351,7.995
	l2.7-4.85c-8.793-5.203-19.354-8.705-29.7-8.705c-23,0-38,17.66-38,37.36c0,13.862,4,26.448,35,36.936
	c25.993,8.794,34,17.83,34,33.562c0,16.782-11,33.562-32.672,33.562c-11.235,0-20.964-3.812-29.929-11.262l-2.5,4.614
	c9.465,7.729,20.325,12.177,32.119,12.177c23.981,0,38.281-17.065,38.281-39.257C-277.25,82.974-298.55,76.681-314.55,71.438"/>
<polygon points="-624.894,2.385 -624.894,149.335 -566.188,149.335 -566.188,144.036 -619.594,144.036 -619.594,2.385 "/>
<polygon points="-493.228,2.385 -493.228,141 -493.228,149.335 -428.566,149.335 -428.566,144.036 -487.928,144.036 -487.928,74.52 
	-434.55,74.52 -434.55,69.22 -487.928,69.22 -487.928,7.685 -435.369,7.685 -435.369,2.385 "/>
<rect x="-733.148" y="2.385" width="5.3" height="146.95"/>
<path d="M-829.95,73.056v0.002h-0.002v61.678c-11.617,5.366-25.959,9.281-41.598,9.281c-47.939,0-75.5-31.92-75.5-68.315
	c0-32.841,29.206-67.998,75.5-67.998c16.819,0,29.593,3.58,41,9.482l2.5-4.867c-11.964-6.107-25.572-9.933-43.5-9.933
	c-50.054,0-81.2,35.458-81.2,73.517c0,39.567,30.2,73.434,81.2,73.434c17.514,0,33.947-4.829,46.9-11.151V73.056H-829.95z"/>
<path stroke="#000000" stroke-width="3" stroke-miterlimit="10" d="M640.7,71.553c-16-5.244-31.7-13.431-31.7-31.895
	c0-15.303,11.961-31.599,32.35-31.599c9.618,0,18.955,2.973,27.351,7.995l2.7-4.85C662.607,6.002,652.047,2.5,641.7,2.5
	c-23,0-38,17.66-38,37.36c0,13.862,4,26.448,35,36.936c25.993,8.793,34,17.831,34,33.563c0,16.781-11,33.562-32.672,33.562
	c-11.235,0-20.964-3.812-29.929-11.262l-2.5,4.613c9.465,7.729,20.325,12.178,32.119,12.178c23.981,0,38.281-17.066,38.281-39.258
	C678,83.089,656.7,76.796,640.7,71.553"/>
<polygon stroke="#000000" stroke-width="3" stroke-miterlimit="10" points="330.356,2.5 330.356,149.451 389.062,149.451 
	389.062,144.15 335.656,144.15 335.656,2.5 "/>
<polygon stroke="#000000" stroke-width="3" stroke-miterlimit="10" points="462.022,2.5 462.022,141.115 462.022,149.451 
	526.684,149.451 526.684,144.15 467.322,144.15 467.322,74.635 520.7,74.635 520.7,69.335 467.322,69.335 467.322,7.8 519.881,7.8 
	519.881,2.5 "/>
<rect x="222.102" y="2.5" stroke="#000000" stroke-width="3" stroke-miterlimit="10" width="5.301" height="146.951"/>
<path stroke="#000000" stroke-width="3" stroke-miterlimit="10" d="M125.3,73.171v0.002h-0.002v61.678
	c-11.616,5.365-25.959,9.281-41.598,9.281c-47.938,0-75.5-31.92-75.5-68.316c0-32.841,29.206-67.998,75.5-67.998
	c16.819,0,29.593,3.58,41,9.482l2.5-4.867c-11.964-6.107-25.572-9.933-43.5-9.933c-50.054,0-81.2,35.458-81.2,73.517
	c0,39.568,30.2,73.433,81.2,73.433c17.514,0,33.946-4.828,46.899-11.15V73.171H125.3z"/>
</svg>
