<?xml version="1.0" encoding="utf-8"?>
<!-- Generator: Adobe Illustrator 15.1.0, SVG Export Plug-In . SVG Version: 6.00 Build 0)  -->
<!DOCTYPE svg PUBLIC "-//W3C//DTD SVG 1.1//EN" "http://www.w3.org/Graphics/SVG/1.1/DTD/svg11.dtd">
<svg version="1.1"
	 id="svg3107" xmlns:dc="http://purl.org/dc/elements/1.1/" xmlns:cc="http://creativecommons.org/ns#" xmlns:rdf="http://www.w3.org/1999/02/22-rdf-syntax-ns#" xmlns:svg="http://www.w3.org/2000/svg"
	 xmlns="http://www.w3.org/2000/svg" xmlns:xlink="http://www.w3.org/1999/xlink" x="0px" y="0px" width="105px" height="40px"
	 viewBox="-12.112 -4.626 105 40" enable-background="new -12.112 -4.626 105 40" xml:space="preserve">
<path id="path3154" fill="#FFFFFF" d="M37.074,3.563c0.994,1.519,1.49,3.352,1.825,3.556c0.358,0.217,5.489,0.317,5.909-0.141
	c0.713-0.779,0.687-1.415,2.226-3.652c1.269-1.847,2.904-3.577,2.985-4.056c0.158-0.895-15.985-0.635-16.199-0.314
	C33.322-0.295,36.079,2.045,37.074,3.563 M55.969,27.532c5.413,6.038,15.799,5.079,19.595,2.488
	c7.683-5.247,8.19-12.148,9.51-16.166c1.316-4.015,1.612-7.75-2.331-11.509c-3.945-3.76-19.659-5.066-26.17-3.359
	c-4.34,1.14-9.559,4.143-9.957,8.205C46.1,12.474,50.556,21.493,55.969,27.532 M15.95-1.584C3.359-1.541-3.601,3.251-4.594,10.087
	c-0.993,6.836,6.471,23.364,20.715,22.51c14.247-0.855,21.915-20.255,21.018-24.023C35.281,0.781,28.542-1.629,15.95-1.584
	 M-2.739,23.277c-1.86-2.525-3.644-7.238-4.066-8.77c-0.422-1.532-1.084-2.288-2.266-3.417c-1.184-1.128-0.052-2.183-0.08-3.339
	s2.14-1.85,2.902-2.255c0.761-0.402,1.977-3.387,3.237-4.317c1.263-0.931,5.188-3.466,16.861-4.388
	C25.52-4.13,38.523-3.031,56.767-3.463C74.624-3.888,76.971-2.404,81.63-0.974c4.661,1.431,6.716,6.781,7.383,7.792
	c0.668,1.013,0.659,0.793,0.926,1.005c0.652,0.521,0.52,2.632,0.077,3.341c-0.284,0.453-0.89,0.406-1.771,1.2
	c-0.435,0.666-0.419-0.1-2.3,5.837c-1.654,6.08-6.857,14.047-16.724,15.437c-7.954,1.12-13.7-3.498-17.689-8.702
	c-4.638-6.058-6.799-15.577-7.32-16.019c-0.469-0.397-4.531-0.293-5.01,0.12c-0.393,0.339-1.415,5.304-3.123,9.073
	c-1.71,3.766-6.711,17.031-21.333,16.188C2.132,33.57-0.881,25.802-2.739,23.277"/>
</svg>
