<?xml version="1.0" encoding="utf-8"?>
<!-- Generator: Adobe Illustrator 15.1.0, SVG Export Plug-In . SVG Version: 6.00 Build 0)  -->
<!DOCTYPE svg PUBLIC "-//W3C//DTD SVG 1.1//EN" "http://www.w3.org/Graphics/SVG/1.1/DTD/svg11.dtd">
<svg version="1.1"
	 id="svg3073" xmlns:dc="http://purl.org/dc/elements/1.1/" xmlns:cc="http://creativecommons.org/ns#" xmlns:rdf="http://www.w3.org/1999/02/22-rdf-syntax-ns#" xmlns:svg="http://www.w3.org/2000/svg"
	 xmlns="http://www.w3.org/2000/svg" xmlns:xlink="http://www.w3.org/1999/xlink" x="0px" y="0px" width="105px" height="45px"
	 viewBox="-34.609 -4.608 105 45" enable-background="new -34.609 -4.608 105 45" xml:space="preserve">
<g id="layer1" transform="translate(-357.10906,-514.47062)">
	<g id="g3108" transform="matrix(1.25,0,0,-1.25,357.10844,550.25375)">
		<g id="g3110">
			<g>
				<g id="g3112">
					<g id="g3122" transform="translate(14.6606,16.3301)">
						<path id="path3124" fill="#273223" d="M0.837,4.867C4.203,4.73,4.609,7.516,4.658,8.685c0.046,1.168-7.291,1.335-7.331,0.291
							C-2.729,7.546-2.531,4.999,0.837,4.867 M-5.763,4.127c-0.413,4.029-5.765,5.916-10.702,6.214
							c-4.938,0.3-20.116-0.052-19.31-11.661c0.802-11.614,7.592-13.883,14.33-13.518C-14.708-14.479-5.152-1.783-5.763,4.127
							 M22.472-13.675c5.678-0.224,9.337,1.845,11.877,10.164c2.541,8.322-0.314,13.391-11.635,14.677
							c-11.322,1.29-15.788-3.883-15.83-6.221C6.687-5.364,16.795-13.451,22.472-13.675 M-28.748,12.675
							c8.138,2.766,29.089,1.691,41.71,2.06C25.571,15.1,38.967,13.336,39.594,4.291c0.632-9.04-3.855-22.565-14.83-22.135
							C13.79-17.412,9.277-9.702,7.292-6.786C5.306-3.865,3.461,2.51,0.864,2.489c-2.85-0.023-4.78-5.244-5.995-7.921
							c-1.219-2.666-6.531-12.095-17.324-13.27c-10.791-1.179-17.197,7.228-17.845,17.256C-40.837,6.853-36.886,9.911-28.748,12.675
							"/>
					</g>
				</g>
			</g>
		</g>
	</g>
</g>
</svg>
