<?xml version="1.0" encoding="UTF-8" standalone="no"?>
<!-- Created with Inkscape (http://www.inkscape.org/) -->

<svg
   xmlns:dc="http://purl.org/dc/elements/1.1/"
   xmlns:cc="http://creativecommons.org/ns#"
   xmlns:rdf="http://www.w3.org/1999/02/22-rdf-syntax-ns#"
   xmlns:svg="http://www.w3.org/2000/svg"
   xmlns="http://www.w3.org/2000/svg"
   xmlns:sodipodi="http://sodipodi.sourceforge.net/DTD/sodipodi-0.dtd"
   xmlns:inkscape="http://www.inkscape.org/namespaces/inkscape"
   width="1000"
   height="220"
   id="svg2"
   version="1.1"
   inkscape:version="0.48.2 r9819"
   sodipodi:docname="giles.svg">
  <defs
     id="defs4">
    <clipPath
       id="clipPath3066"
       clipPathUnits="userSpaceOnUse">
      <path
         id="path3068"
         d="m 83,224.28 675.5,0 0,146.95 -675.5,0 0,-146.95 z"
         inkscape:connector-curvature="0" />
    </clipPath>
  </defs>
  <sodipodi:namedview
     id="base"
     pagecolor="#ffffff"
     bordercolor="#666666"
     borderopacity="1.0"
     inkscape:pageopacity="0.0"
     inkscape:pageshadow="2"
     inkscape:zoom="0.7"
     inkscape:cx="802.13564"
     inkscape:cy="115.93898"
     inkscape:document-units="px"
     inkscape:current-layer="layer1"
     showgrid="false"
     inkscape:window-width="1450"
     inkscape:window-height="1246"
     inkscape:window-x="0"
     inkscape:window-y="0"
     inkscape:window-maximized="0" />
  <metadata
     id="metadata7">
    <rdf:RDF>
      <cc:Work
         rdf:about="">
        <dc:format>image/svg+xml</dc:format>
        <dc:type
           rdf:resource="http://purl.org/dc/dcmitype/StillImage" />
        <dc:title></dc:title>
      </cc:Work>
    </rdf:RDF>
  </metadata>
  <g
     inkscape:label="Layer 1"
     inkscape:groupmode="layer"
     id="layer1"
     transform="translate(0,-832.36218)">
    <g
       transform="matrix(1.4734197,0,0,-1.4734197,-119.75778,1381.0945)"
       inkscape:label="giles_logo_v2"
       id="g3050">
      <path
         id="path3052"
         style="fill:#373535;fill-opacity:1;fill-rule:nonzero;stroke:none"
         d="m 302.602,224.28 5.3,0 0,146.95 -5.3,0 0,-146.95 z"
         inkscape:connector-curvature="0" />
      <g
         transform="translate(410.8564,371.2305)"
         id="g3054">
        <path
           id="path3056"
           style="fill:#373535;fill-opacity:1;fill-rule:nonzero;stroke:none"
           d="m 0,0 0,-146.95 58.706,0 0,5.3 -53.406,0 L 5.3,0 0,0 z"
           inkscape:connector-curvature="0" />
      </g>
      <g
         transform="translate(542.5225,371.2305)"
         id="g3058">
        <path
           id="path3060"
           style="fill:#373535;fill-opacity:1;fill-rule:nonzero;stroke:none"
           d="m 0,0 0,-138.614 0,-8.336 64.661,0 0,5.3 -59.361,0 0,69.515 53.378,0 0,5.3 -53.378,0 0,61.535 52.558,0 0,5.3 L 0,0 z"
           inkscape:connector-curvature="0" />
      </g>
      <g
         id="g3062">
        <g
           clip-path="url(#clipPath3066)"
           id="g3064">
          <g
             transform="translate(721.2002,302.1777)"
             id="g3070">
            <path
               id="path3072"
               style="fill:#373535;fill-opacity:1;fill-rule:nonzero;stroke:none"
               d="m 0,0 c -16,5.244 -31.7,13.431 -31.7,31.895 0,15.302 11.961,31.598 32.349,31.598 9.619,0 18.955,-2.972 27.351,-7.995 l 2.7,4.85 c -8.793,5.203 -19.353,8.705 -29.7,8.705 -23,0 -38,-17.66 -38,-37.361 0,-13.862 4,-26.448 35,-36.935 25.993,-8.794 34,-17.83 34,-33.563 0,-16.782 -11,-33.562 -32.672,-33.562 -11.235,0 -20.964,3.811 -29.929,11.262 l -2.5,-4.615 c 9.465,-7.728 20.326,-12.176 32.12,-12.176 C 23,-77.897 37.3,-60.832 37.3,-38.641 37.3,-11.536 16,-5.243 0,0"
               inkscape:connector-curvature="0" />
          </g>
          <g
             transform="translate(205.7998,300.5596)"
             id="g3074">
            <path
               id="path3076"
               style="fill:#373535;fill-opacity:1;fill-rule:nonzero;stroke:none"
               d="m 0,0 0,-0.002 -0.002,0 0,-61.678 c -11.617,-5.366 -25.959,-9.281 -41.598,-9.281 -47.939,0 -75.5,31.92 -75.5,68.315 0,32.841 29.206,67.999 75.5,67.999 16.819,0 29.593,-3.581 41,-9.483 l 2.5,4.867 c -11.964,6.108 -25.572,9.933 -43.5,9.933 -50.054,0 -81.2,-35.458 -81.2,-73.517 0,-39.567 30.2,-73.433 81.2,-73.433 17.514,0 33.947,4.829 46.9,11.151 L 5.3,0 0,0 z"
               inkscape:connector-curvature="0" />
          </g>
        </g>
      </g>
    </g>
  </g>
</svg>
