<?xml version="1.0" encoding="utf-8"?>
<!-- Generator: Adobe Illustrator 15.1.0, SVG Export Plug-In . SVG Version: 6.00 Build 0)  -->
<!DOCTYPE svg PUBLIC "-//W3C//DTD SVG 1.1//EN" "http://www.w3.org/Graphics/SVG/1.1/DTD/svg11.dtd">
<svg version="1.1" id="Layer_1" xmlns="http://www.w3.org/2000/svg" xmlns:xlink="http://www.w3.org/1999/xlink" x="0px" y="0px"
	 width="679.508px" height="150.96px" viewBox="0 0 679.508 150.96" enable-background="new 0 0 679.508 150.96"
	 xml:space="preserve">
<rect x="221.606" y="2.005" fill="#FFFFFF" width="5.3" height="146.95"/>
<polygon fill="#FFFFFF" points="329.861,2.005 329.861,148.956 388.567,148.956 388.567,143.656 335.161,143.656 335.161,2.005 "/>
<path fill="#FFFFFF" d="M124.804,72.676v0.002h-0.002v61.678c-11.617,5.366-25.959,9.281-41.598,9.281
	c-47.939,0-75.5-31.92-75.5-68.315c0-32.841,29.206-67.998,75.5-67.998c16.819,0,29.593,3.58,41,9.482l2.5-4.867
	c-11.964-6.107-25.572-9.933-43.5-9.933c-50.054,0-81.2,35.458-81.2,73.517c0,39.567,30.2,73.434,81.2,73.434
	c17.514,0,33.947-4.829,46.9-11.151V72.676H124.804z"/>
<path fill="#FFFFFF" d="M640.205,71.058c-16-5.244-31.7-13.431-31.7-31.895c0-15.303,11.961-31.599,32.35-31.599
	c9.618,0,18.955,2.973,27.351,7.995l2.7-4.85c-8.793-5.203-19.354-8.705-29.7-8.705c-23,0-38,17.66-38,37.36
	c0,13.862,4,26.448,35,36.936c25.993,8.794,34,17.83,34,33.562c0,16.782-11,33.562-32.672,33.562
	c-11.235,0-20.964-3.812-29.929-11.262l-2.5,4.614c9.465,7.729,20.325,12.177,32.119,12.177c23.981,0,38.281-17.065,38.281-39.257
	C677.504,82.594,656.205,76.301,640.205,71.058"/>
<polygon fill="#FFFFFF" points="461.527,2.005 461.527,140.62 461.527,148.956 526.188,148.956 526.188,143.656 466.827,143.656 
	466.827,74.14 520.205,74.14 520.205,68.84 466.827,68.84 466.827,7.305 519.385,7.305 519.385,2.005 "/>
</svg>
