<?xml version="1.0" encoding="utf-8"?>
<!-- Generator: Adobe Illustrator 15.1.0, SVG Export Plug-In . SVG Version: 6.00 Build 0)  -->
<!DOCTYPE svg PUBLIC "-//W3C//DTD SVG 1.1//EN" "http://www.w3.org/Graphics/SVG/1.1/DTD/svg11.dtd">
<svg version="1.1" id="Layer_1" xmlns="http://www.w3.org/2000/svg" xmlns:xlink="http://www.w3.org/1999/xlink" x="0px" y="0px"
	 width="675.486px" height="145.129px" viewBox="0 0 675.486 145.129" enable-background="new 0 0 675.486 145.129"
	 xml:space="preserve">
<rect x="219.251" y="3.258" width="5.102" height="138.613"/>
<g>
	<path d="M124.217,9.363C112.253,3.275,99.227-0.002,81.3-0.002c-50.054,0-81.309,35.081-81.309,72.567v0.4
		c0,39.09,29.61,72.167,81.074,72.167c17.513,0,32.965-4.2,45.918-10.5v-4.86c-0.046,0.022-0.095,0.048-0.141,0.071V69.73h-4.394
		v62.261c-11.618,5.346-25.509,9.133-41.148,9.133c-47.939,0-76.139-31.875-76.139-68.358v-0.399
		c0-34.681,29.609-68.358,75.904-68.358c16.818,0,29.42,3.5,40.828,9.382L124.217,9.363z"/>
</g>
<polygon points="386.212,141.872 386.212,141.872 386.212,137.912 386.212,137.336 332.609,137.336 332.609,3.258 330.391,3.258 
	327.535,3.258 327.506,3.258 327.506,141.872 327.535,141.872 332.609,141.872 "/>
<polygon points="523.976,141.872 523.976,137.912 523.833,137.912 523.833,136.77 464.447,136.77 464.447,72.423 517.739,72.423 
	517.739,67.322 464.447,67.322 464.447,8.361 517.03,8.361 517.03,7.218 517.173,7.218 517.173,3.258 517.03,3.258 464.447,3.258 
	459.346,3.258 459.173,3.258 459.173,141.872 "/>
<g>
	<path d="M674.493,105.16v0.43c0,21.95-15.88,37.28-38.62,37.28c-11.77,0-22.77-3.93-32.72-11.67l-0.68-0.53l2.92-5.229l0.92,0.729
		c9.02,7.15,19.069,10.78,29.859,10.78c19.261,0,32.2-12.26,32.2-30.51l0.101-1.32c0-15.99-7.16-22.56-34.78-31.909
		c-3.561-0.91-8.561-2.9-8.771-2.98c-17.8-6.62-25.41-16.229-25.41-32.13v-0.38c0-19.891,16.811-35.46,38.271-35.46
		c10.13,0,20.47,2.8,29.88,8.109l0.86,0.49l-3.011,5.4l-0.869-0.5c-8.78-5.01-18.181-7.66-27.19-7.66
		c-20.25,0-32.35,14.96-32.35,29.42v0.39c0.01,14.841,9.68,24.091,31.38,30l3.16,1.011C664.724,76.89,674.493,87.05,674.493,105.16z
		"/>
</g>
</svg>
