<?xml version="1.0" encoding="utf-8"?>
<!-- Generator: Adobe Illustrator 15.1.0, SVG Export Plug-In . SVG Version: 6.00 Build 0)  -->
<!DOCTYPE svg PUBLIC "-//W3C//DTD SVG 1.1//EN" "http://www.w3.org/Graphics/SVG/1.1/DTD/svg11.dtd">
<svg version="1.1" id="Layer_1" xmlns="http://www.w3.org/2000/svg" xmlns:xlink="http://www.w3.org/1999/xlink" x="0px" y="0px"
	 width="56.693px" height="56.693px" viewBox="0 0 56.693 56.693" enable-background="new 0 0 56.693 56.693" xml:space="preserve">
<path fill="#314665" d="M28.347,3.346c-13.808,0-25,11.196-25,25.001c0,13.808,11.192,24.999,25,24.999
	c13.807,0,25-11.191,25-24.999C53.347,14.542,42.153,3.346,28.347,3.346z M34.964,28.243h-4.329c0,6.917,0,15.438,0,15.438h-6.417
	c0,0,0-8.434,0-15.438h-3.051v-5.451h3.051V19.26c0-2.528,1.2-6.474,6.476-6.474l4.751,0.019v5.294c0,0-2.889,0-3.449,0
	c-0.562,0-1.36,0.281-1.36,1.483v3.211h4.892L34.964,28.243z"/>
</svg>
