<?xml version="1.0" encoding="utf-8"?>
<!-- Generator: Adobe Illustrator 15.1.0, SVG Export Plug-In . SVG Version: 6.00 Build 0)  -->
<!DOCTYPE svg PUBLIC "-//W3C//DTD SVG 1.1//EN" "http://www.w3.org/Graphics/SVG/1.1/DTD/svg11.dtd">
<svg version="1.1" id="Layer_1" xmlns="http://www.w3.org/2000/svg" xmlns:xlink="http://www.w3.org/1999/xlink" x="0px" y="0px"
	 width="56.693px" height="56.693px" viewBox="0 0 56.693 56.693" enable-background="new 0 0 56.693 56.693" xml:space="preserve">
<g>
	<polygon fill="#314665" points="38.545,21.937 38.545,17.929 38.545,17.331 37.945,17.333 33.938,17.346 33.953,21.952 	"/>
	<path fill="#314665" d="M28.1,32.573c2.638,0,4.785-2.146,4.785-4.783c0-1.041-0.339-2.005-0.907-2.79
		c-0.868-1.204-2.282-1.995-3.878-1.995c-1.596,0-3.008,0.792-3.878,1.995c-0.567,0.785-0.904,1.749-0.904,2.79
		C23.318,30.427,25.462,32.573,28.1,32.573z"/>
	<path fill="#314665" d="M28.225,2.409c-13.808,0-25.001,11.192-25.001,24.999c0,13.808,11.193,25.001,25.001,25.001
		c13.806,0,24.999-11.193,24.999-25.001C53.224,13.601,42.03,2.409,28.225,2.409z M41.69,25v11.128c0,2.896-2.357,5.251-5.253,5.251
		H19.762c-2.897,0-5.252-2.354-5.252-5.251V25v-5.547c0-2.897,2.355-5.252,5.252-5.252h16.675c2.896,0,5.253,2.355,5.253,5.252V25z"
		/>
	<path fill="#314665" d="M35.532,27.79c0,4.097-3.333,7.432-7.432,7.432s-7.43-3.335-7.43-7.432c0-0.988,0.196-1.928,0.545-2.79
		h-4.057v11.128c0,1.436,1.168,2.604,2.604,2.604h16.675c1.437,0,2.604-1.168,2.604-2.604V25h-4.06
		C35.334,25.862,35.532,26.803,35.532,27.79z"/>
</g>
</svg>
