<?xml version="1.0" encoding="utf-8"?>
<!-- Generator: Adobe Illustrator 15.1.0, SVG Export Plug-In . SVG Version: 6.00 Build 0)  -->
<!DOCTYPE svg PUBLIC "-//W3C//DTD SVG 1.1//EN" "http://www.w3.org/Graphics/SVG/1.1/DTD/svg11.dtd">
<svg version="1.1" id="Layer_1" xmlns="http://www.w3.org/2000/svg" xmlns:xlink="http://www.w3.org/1999/xlink" x="0px" y="0px"
	 width="56.693px" height="56.693px" viewBox="0 0 56.693 56.693" enable-background="new 0 0 56.693 56.693" xml:space="preserve">
<path fill="#314665" d="M28.348,3.346c-13.808,0-25.001,11.196-25.001,25.001c0,13.808,11.193,24.999,25.001,24.999
	c13.808,0,24.999-11.191,24.999-24.999C53.347,14.542,42.155,3.346,28.348,3.346z M40.941,23.307
	c0.014,0.27,0.019,0.541,0.019,0.815c0,8.326-6.337,17.926-17.926,17.926c-3.557,0-6.87-1.043-9.658-2.83
	c0.493,0.058,0.993,0.088,1.502,0.088c2.953,0,5.669-1.008,7.825-2.697c-2.756-0.052-5.082-1.874-5.884-4.376
	c0.384,0.075,0.778,0.112,1.185,0.112c0.575,0,1.131-0.075,1.66-0.221c-2.883-0.578-5.055-3.127-5.055-6.177
	c0-0.027,0-0.054,0.001-0.081c0.849,0.473,1.82,0.755,2.854,0.789c-1.691-1.132-2.803-3.058-2.803-5.245
	c0-1.154,0.311-2.238,0.853-3.167c3.108,3.811,7.75,6.32,12.987,6.583c-0.107-0.46-0.164-0.943-0.164-1.436
	c0-3.478,2.82-6.3,6.301-6.3c1.812,0,3.449,0.766,4.599,1.989c1.436-0.282,2.784-0.807,4.001-1.529
	c-0.473,1.473-1.47,2.707-2.771,3.485c1.275-0.152,2.49-0.491,3.619-0.992C43.242,21.309,42.173,22.418,40.941,23.307z"/>
</svg>
